<svg xmlns="http://www.w3.org/2000/svg" viewBox="0 0 680.38 645.91"><defs><style>.cls-1{fill:none;stroke:#000;stroke-miterlimit:10;stroke-width:15px;}</style></defs><title>chatboticon</title><g id="Layer_2" data-name="Layer 2"><g id="Layer_1-2" data-name="Layer 1"><path class="cls-1" d="M7.5,51.34v-7.8c3-4.86,6.75-8.57,12.75-9.93C72.6,21.75,125,10.12,178.88,7.81c15.51-.67,31.41-1,45.16,8.36,24.39,16.54,36.26,39.73,34.41,69.09-.5,8,1.49,11.6,8.48,15.18,29.68,15.21,55.28,35.43,73.83,63.59.4-.17.68-.2.78-.35,17.35-25.32,40.1-44.62,66.72-59.51,3.07-1.71,2.77-3.5,2.21-6.3-10.48-52.29,24.06-92.8,77-90.26C542,10.23,595,21.6,648,33.93c6.3,1.47,10.57,5.12,11.66,11.56,1,6.2-1.87,10.87-6.9,14.34-41.47,28.68-82.33,58.28-125.46,84.48-34.92,21.22-72.66,15.73-100.54-14.26-1.9-2-3.08-2.9-5.84-1.29-16.73,9.8-32.24,21.14-45,35.86-4.54,5.25-9.63,10.32-12,17.79h7.67q102.65,0,205.3,0c5.41,0,10.89-.16,16.21.63,48.11,7.21,79.77,44.06,79.8,92.86q.09,134.49,0,269a95.4,95.4,0,0,1-2.18,21.91c-10.22,43.66-45.94,71.53-92.14,71.55q-237.46.11-474.93,0a117.69,117.69,0,0,1-19.39-1.58C45.48,630.2,9,595.68,9.3,543.46c.53-88.79.13-177.59.17-266.38,0-8.44.45-16.87,2.55-25.13,10.73-42.23,45.82-69.4,90.38-69.5,69.73-.14,139.46,0,209.2-.07,2.2,0,4.59.58,7-.83-.92-1.67-1.55-3-2.38-4.27-16.7-24.8-40.24-41.32-66.32-54.81-3.1-1.6-3.66.59-4.92,2.22-26.68,34.38-67.77,42.14-105.06,19.48C97.88,118.64,58.07,89.81,17.61,62A31.27,31.27,0,0,1,7.5,51.34Z"/><path d="M437.68,340.48c0-19.05,0-38.11,0-57.16,0-13.06,5-18.17,18-18.23q30.85-.15,61.72,0c12.19.08,17.47,5.32,17.5,17.43q.12,58.79,0,117.58c0,11.77-5.32,17.17-17,17.27q-31.5.27-63,0c-12-.09-17.11-5.54-17.15-17.78C437.63,379.89,437.68,360.19,437.68,340.48Z"/><path d="M147.61,341.16c0-19.48,0-39,0-58.45,0-12.4,4.9-17.52,17.14-17.6q31.5-.21,63,0c11.6.1,16.63,5.2,16.66,16.73q.12,59.43,0,118.86c0,11.41-5.2,16.57-16.78,16.67q-31.5.25-63,0c-11.9-.1-17-5.33-17-17.12C147.56,380.57,147.61,360.86,147.61,341.16Z"/><path d="M342,472.33c17.94.64,35.52,3.18,50.71,13.56,23.64,16.16,23.6,39.43.31,56-25.26,17.92-78.11,18-103.41.22-24.87-17.52-23-44.54,4.12-58.84C308.85,475.24,325.14,472.62,342,472.33Z"/></g></g></svg>