<svg version="1.1" id="Layer_1" xmlns="http://www.w3.org/2000/svg" xmlns:xlink="http://www.w3.org/1999/xlink" x="0px" y="0px"
	 width="100%" viewBox="0 0 512 512" enable-background="new 0 0 512 512" xml:space="preserve">
<path fill="#1A8156" opacity="1.000000" stroke="none" 
	d="
M1.000001,147.000000 
	C1.000000,140.645599 1.000000,134.291214 1.381526,127.512688 
	C2.806693,124.741371 3.924048,122.423859 4.882508,120.042381 
	C13.897179,97.643669 34.930004,88.378616 57.213249,92.689369 
	C76.917740,96.501244 93.124146,115.824059 92.213608,137.613892 
	C91.407013,156.916183 82.571350,170.119003 65.798569,178.417648 
	C62.839989,179.881454 61.948723,181.248764 61.957039,184.258133 
	C62.033936,212.087433 61.996029,239.917038 62.023590,267.746521 
	C62.024902,269.072052 62.327625,270.397217 62.489990,271.722565 
	C83.764656,206.393204 128.987915,177.549255 196.999908,182.098694 
	C196.999908,179.243011 196.999908,177.128983 196.999924,175.014954 
	C197.000031,137.020172 197.036270,99.025330 196.974869,61.030655 
	C196.959473,51.504185 199.708771,42.602882 204.293716,34.613216 
	C213.338196,18.852428 226.416153,7.659503 244.385742,2.880108 
	C245.043945,2.705046 245.467224,1.646705 246.000000,0.999999 
	C318.354218,1.000000 390.708466,1.000000 463.472015,1.383873 
	C464.378876,2.144994 464.822632,2.716959 465.381714,2.871362 
	C485.965088,8.556060 500.040161,21.572184 508.526825,40.966110 
	C509.872406,44.041077 511.501831,46.991817 513.000000,50.000000 
	C513.000000,97.354225 513.000000,144.708450 512.616333,192.471619 
	C511.854462,193.379272 511.259735,193.827179 511.128967,194.384018 
	C504.948395,220.709000 477.247498,243.733978 448.690063,242.024704 
	C445.622803,241.841110 442.535034,241.999939 439.508759,241.999939 
	C442.802521,251.161407 446.164764,259.549927 448.738434,268.173798 
	C449.690186,271.362823 451.032227,272.080963 453.871399,272.026245 
	C459.199249,271.923462 464.556000,272.336487 469.855591,271.936432 
	C485.457642,270.758698 504.493835,283.820526 510.112335,299.695801 
	C510.565857,300.977356 512.014038,301.906891 513.000000,303.000000 
	C513.000000,332.020905 513.000000,361.041779 512.635498,390.455078 
	C511.543304,391.906586 510.591858,392.875336 510.121887,394.038605 
	C504.327881,408.379486 493.944580,417.805237 478.902100,420.894257 
	C471.229492,422.469879 463.077301,421.890503 455.140564,421.919678 
	C451.455536,421.933228 449.818665,422.787872 448.760742,426.796875 
	C441.414764,454.634766 426.192902,477.159302 402.196045,493.397797 
	C389.797882,501.787628 376.249329,507.645355 361.630920,511.013184 
	C360.653259,511.238403 359.872406,512.317871 359.000000,513.000000 
	C291.312439,513.000000 223.624878,513.000000 155.512360,512.610535 
	C154.257294,511.806732 153.469803,511.211060 152.590881,511.004700 
	C130.933472,505.919861 111.851433,496.073151 95.914841,480.409485 
	C80.476166,465.235138 70.246002,447.058655 65.090485,426.080658 
	C64.277428,422.772247 62.737202,421.851715 59.620178,421.955963 
	C54.470779,422.128174 49.303917,421.820496 44.157555,422.033142 
	C27.449589,422.723572 9.627406,410.065155 3.885253,394.312622 
	C3.417149,393.028473 1.984474,392.095917 1.000000,391.000000 
	C1.000000,361.979095 1.000000,332.958221 1.363730,303.556152 
	C2.161000,302.705597 2.787327,302.310120 2.999816,301.755951 
	C8.002771,288.708344 16.748484,279.420837 29.922209,274.342224 
	C30.958006,273.942932 31.900986,271.792786 31.906216,270.452484 
	C32.019341,241.455688 32.042171,212.458008 31.855953,183.461975 
	C31.846027,181.916611 30.191378,179.691330 28.717070,178.955841 
	C17.626129,173.422913 9.142442,165.606552 4.783612,153.702728 
	C3.913110,151.325424 2.280956,149.227005 1.000001,147.000000 
M322.495270,483.000000 
	C331.744965,482.463470 341.104309,482.638123 350.220001,481.232513 
	C365.966980,478.804413 379.898499,472.266113 392.138611,461.618103 
	C401.329895,453.622345 408.346771,444.235809 413.574371,433.549561 
	C420.378906,419.639709 422.022156,404.480743 421.946960,389.208588 
	C421.788940,357.104218 421.356140,325.001099 420.993195,292.897949 
	C420.793671,275.245056 414.178650,259.848236 404.136932,245.701065 
	C402.180786,242.945114 399.587677,241.908264 396.042267,241.920197 
	C357.721680,242.049149 319.400391,241.966003 281.079712,242.079483 
	C278.556610,242.086960 275.824036,242.791199 273.549286,243.906464 
	C255.556946,252.727646 237.763367,261.960846 219.676727,270.580658 
	C209.573654,275.395599 196.201584,270.262695 196.864014,256.669678 
	C197.495819,243.704666 197.011154,230.684662 196.985596,217.688873 
	C196.982132,215.927444 196.794037,214.166382 196.626099,211.283661 
	C184.382675,212.225967 172.521042,212.117233 161.072876,214.239243 
	C139.309448,218.273254 121.820686,229.721420 108.571144,247.701706 
	C96.463692,264.132080 92.281044,282.874969 92.079460,302.682434 
	C91.775963,332.503113 91.919167,362.329529 92.066109,392.152557 
	C92.096947,398.413361 92.452148,404.761993 93.550705,410.910645 
	C96.382202,426.758331 102.670135,440.932861 113.493950,453.276581 
	C121.752190,462.694427 131.397552,469.737366 142.557755,474.962006 
	C157.303070,481.865021 173.074768,483.011292 189.039627,483.005554 
	C233.192108,482.989655 277.344604,483.000031 322.495270,483.000000 
M226.999939,167.500000 
	C226.999939,188.633286 226.999939,209.766556 226.999939,231.637299 
	C229.094574,230.737732 230.597687,230.176270 232.026306,229.465134 
	C242.109833,224.445694 252.103683,219.237076 262.296936,214.452713 
	C265.316772,213.035294 268.882812,212.109146 272.201416,212.100922 
	C328.857056,211.960495 385.513397,212.083389 442.168854,211.910233 
	C450.721527,211.884094 459.260345,210.894119 466.765747,205.783829 
	C478.399872,197.862366 482.921326,186.324081 482.901001,173.006058 
	C482.844696,136.062836 482.488495,99.117851 481.900940,62.179134 
	C481.737732,51.919281 475.940887,44.170322 468.058563,38.060093 
	C460.470795,32.178139 451.328949,31.114492 442.234650,31.080391 
	C395.910675,30.906679 349.585541,30.922428 303.261261,31.045418 
	C288.650330,31.084208 274.041962,31.841118 259.430237,31.937166 
	C246.377533,32.022964 232.734726,43.124561 229.643463,54.983101 
	C228.201401,60.515099 227.157944,66.325500 227.114700,72.018677 
	C226.875473,103.510925 227.000031,135.005936 226.999939,167.500000 
M53.525417,301.999969 
	C36.616924,301.756287 31.569780,308.057068 31.168438,319.964966 
	C30.563730,337.906708 30.850693,355.885986 31.087132,373.844940 
	C31.182510,381.089539 33.317009,388.211792 41.131340,390.293182 
	C47.634277,392.025269 54.651176,391.827698 61.653542,392.505463 
	C61.653542,361.640747 61.653542,332.125763 61.653542,301.999969 
	C59.033348,301.999969 56.751919,301.999969 53.525417,301.999969 
M483.000031,369.392700 
	C482.999329,353.394897 483.039062,337.396973 482.982300,321.399384 
	C482.949890,312.262726 479.125732,304.866943 472.599060,303.489899 
	C466.101776,302.119049 459.305695,302.164276 452.360718,301.564423 
	C452.360718,332.305145 452.360718,361.861450 452.360718,392.452576 
	C459.325684,391.862915 465.983734,391.916443 472.356903,390.595551 
	C479.505493,389.113983 482.968506,381.699310 483.000031,369.392700 
M54.358456,124.896194 
	C50.379311,124.356773 46.022030,122.532959 42.506413,123.567986 
	C36.703819,125.276314 32.021614,129.933868 32.995136,139.431717 
	C33.523151,144.583145 38.600849,150.160263 43.721523,150.948044 
	C51.375999,152.125610 58.051407,148.526001 60.541515,141.878159 
	C62.737057,136.016739 60.418671,129.169479 54.358456,124.896194 
z"/>
<path fill="none" opacity="1.000000" stroke="none" 
	d="
M245.531342,0.999999 
	C245.467224,1.646705 245.043945,2.705046 244.385742,2.880108 
	C226.416153,7.659503 213.338196,18.852428 204.293716,34.613216 
	C199.708771,42.602882 196.959473,51.504185 196.974869,61.030655 
	C197.036270,99.025330 197.000031,137.020172 196.999924,175.014954 
	C196.999908,177.128983 196.999908,179.243011 196.999908,182.098694 
	C128.987915,177.549255 83.764656,206.393204 62.489990,271.722565 
	C62.327625,270.397217 62.024902,269.072052 62.023590,267.746521 
	C61.996029,239.917038 62.033936,212.087433 61.957039,184.258133 
	C61.948723,181.248764 62.839989,179.881454 65.798569,178.417648 
	C82.571350,170.119003 91.407013,156.916183 92.213608,137.613892 
	C93.124146,115.824059 76.917740,96.501244 57.213249,92.689369 
	C34.930004,88.378616 13.897179,97.643669 4.882508,120.042381 
	C3.924048,122.423859 2.806693,124.741371 1.381526,127.044281 
	C1.000000,85.049568 1.000000,43.099133 1.000000,1.000000 
	C82.354172,1.000000 163.708420,1.000000 245.531342,0.999999 
z"/>
<path fill="none" opacity="1.000000" stroke="none" 
	d="
M1.000000,391.468658 
	C1.984474,392.095917 3.417149,393.028473 3.885253,394.312622 
	C9.627406,410.065155 27.449589,422.723572 44.157555,422.033142 
	C49.303917,421.820496 54.470779,422.128174 59.620178,421.955963 
	C62.737202,421.851715 64.277428,422.772247 65.090485,426.080658 
	C70.246002,447.058655 80.476166,465.235138 95.914841,480.409485 
	C111.851433,496.073151 130.933472,505.919861 152.590881,511.004700 
	C153.469803,511.211060 154.257294,511.806732 155.043701,512.610535 
	C103.748146,513.000000 52.496300,513.000000 1.000000,513.000000 
	C1.000000,472.646088 1.000000,432.291718 1.000000,391.468658 
z"/>
<path fill="none" opacity="1.000000" stroke="none" 
	d="
M359.468658,513.000000 
	C359.872406,512.317871 360.653259,511.238403 361.630920,511.013184 
	C376.249329,507.645355 389.797882,501.787628 402.196045,493.397797 
	C426.192902,477.159302 441.414764,454.634766 448.760742,426.796875 
	C449.818665,422.787872 451.455536,421.933228 455.140564,421.919678 
	C463.077301,421.890503 471.229492,422.469879 478.902100,420.894257 
	C493.944580,417.805237 504.327881,408.379486 510.121887,394.038605 
	C510.591858,392.875336 511.543304,391.906586 512.635498,390.923706 
	C513.000000,431.602112 513.000000,472.204224 513.000000,513.000000 
	C461.979279,513.000000 410.958282,513.000000 359.468658,513.000000 
z"/>
<path fill="none" opacity="1.000000" stroke="none" 
	d="
M1.000001,147.468658 
	C2.280956,149.227005 3.913110,151.325424 4.783612,153.702728 
	C9.142442,165.606552 17.626129,173.422913 28.717070,178.955841 
	C30.191378,179.691330 31.846027,181.916611 31.855953,183.461975 
	C32.042171,212.458008 32.019341,241.455688 31.906216,270.452484 
	C31.900986,271.792786 30.958006,273.942932 29.922209,274.342224 
	C16.748484,279.420837 8.002771,288.708344 2.999816,301.755951 
	C2.787327,302.310120 2.161000,302.705597 1.363730,303.087524 
	C1.000000,251.312439 1.000000,199.624878 1.000001,147.468658 
z"/>
<path fill="none" opacity="1.000000" stroke="none" 
	d="
M513.000000,302.531342 
	C512.014038,301.906891 510.565857,300.977356 510.112335,299.695801 
	C504.493835,283.820526 485.457642,270.758698 469.855591,271.936432 
	C464.556000,272.336487 459.199249,271.923462 453.871399,272.026245 
	C451.032227,272.080963 449.690186,271.362823 448.738434,268.173798 
	C446.164764,259.549927 442.802521,251.161407 439.508759,241.999939 
	C442.535034,241.999939 445.622803,241.841110 448.690063,242.024704 
	C477.247498,243.733978 504.948395,220.709000 511.128967,194.384018 
	C511.259735,193.827179 511.854462,193.379272 512.616333,192.940277 
	C513.000000,229.354233 513.000000,265.708466 513.000000,302.531342 
z"/>
<path fill="none" opacity="1.000000" stroke="none" 
	d="
M513.000000,49.531342 
	C511.501831,46.991817 509.872406,44.041077 508.526825,40.966110 
	C500.040161,21.572184 485.965088,8.556060 465.381714,2.871362 
	C464.822632,2.716959 464.378876,2.144994 463.940674,1.383873 
	C480.260071,1.000000 496.520142,1.000000 513.000000,1.000000 
	C513.000000,17.020226 513.000000,33.041454 513.000000,49.531342 
z"/>
<path fill="none" opacity="1.000000" stroke="none" 
	d="
M321.996155,483.000000 
	C277.344604,483.000031 233.192108,482.989655 189.039627,483.005554 
	C173.074768,483.011292 157.303070,481.865021 142.557755,474.962006 
	C131.397552,469.737366 121.752190,462.694427 113.493950,453.276581 
	C102.670135,440.932861 96.382202,426.758331 93.550705,410.910645 
	C92.452148,404.761993 92.096947,398.413361 92.066109,392.152557 
	C91.919167,362.329529 91.775963,332.503113 92.079460,302.682434 
	C92.281044,282.874969 96.463692,264.132080 108.571144,247.701706 
	C121.820686,229.721420 139.309448,218.273254 161.072876,214.239243 
	C172.521042,212.117233 184.382675,212.225967 196.626099,211.283661 
	C196.794037,214.166382 196.982132,215.927444 196.985596,217.688873 
	C197.011154,230.684662 197.495819,243.704666 196.864014,256.669678 
	C196.201584,270.262695 209.573654,275.395599 219.676727,270.580658 
	C237.763367,261.960846 255.556946,252.727646 273.549286,243.906464 
	C275.824036,242.791199 278.556610,242.086960 281.079712,242.079483 
	C319.400391,241.966003 357.721680,242.049149 396.042267,241.920197 
	C399.587677,241.908264 402.180786,242.945114 404.136932,245.701065 
	C414.178650,259.848236 420.793671,275.245056 420.993195,292.897949 
	C421.356140,325.001099 421.788940,357.104218 421.946960,389.208588 
	C422.022156,404.480743 420.378906,419.639709 413.574371,433.549561 
	C408.346771,444.235809 401.329895,453.622345 392.138611,461.618103 
	C379.898499,472.266113 365.966980,478.804413 350.220001,481.232513 
	C341.104309,482.638123 331.744965,482.463470 321.996155,483.000000 
M231.547272,392.000366 
	C229.549759,392.000702 227.552200,391.991119 225.554764,392.003113 
	C217.183960,392.053375 212.006607,397.683563 212.000702,406.734741 
	C211.994492,416.247131 217.036621,421.977783 225.539246,421.989105 
	C246.513123,422.016998 267.487122,422.016815 288.460999,421.989532 
	C296.964478,421.978485 302.003876,416.254639 301.999146,406.743683 
	C301.994690,397.696259 296.816437,392.019440 288.463989,392.008606 
	C269.820526,391.984497 251.177002,392.000641 231.547272,392.000366 
M196.993042,349.991760 
	C196.994522,338.337158 197.073151,326.681580 196.924438,315.028900 
	C196.898499,312.996155 196.275711,310.781219 195.307724,308.985046 
	C192.081558,302.998566 186.690094,301.583649 180.240936,301.926788 
	C172.802780,302.322571 167.044998,307.682922 167.014542,315.051575 
	C166.967728,326.372986 166.954849,337.695129 167.051773,349.015930 
	C167.066742,350.764252 167.404037,352.675537 168.172363,354.223511 
	C171.857910,361.648987 178.535965,362.991425 185.808228,361.885468 
	C191.901413,360.958801 195.544479,356.867493 196.993042,349.991760 
M346.948273,312.252960 
	C344.055054,304.654022 338.713165,301.361633 330.459473,301.904480 
	C322.719940,302.413544 317.033478,307.627747 317.010437,315.330750 
	C316.977051,326.486115 316.970428,337.641724 317.012329,348.797028 
	C317.042694,356.881348 322.943970,362.000732 332.107819,361.998932 
	C341.232147,361.997131 346.964081,356.873383 346.988007,348.590668 
	C347.022186,336.769379 346.987885,324.947876 346.948273,312.252960 
z"/>
<path fill="none" opacity="1.000000" stroke="none" 
	d="
M226.999939,167.000000 
	C227.000031,135.005936 226.875473,103.510925 227.114700,72.018677 
	C227.157944,66.325500 228.201401,60.515099 229.643463,54.983101 
	C232.734726,43.124561 246.377533,32.022964 259.430237,31.937166 
	C274.041962,31.841118 288.650330,31.084208 303.261261,31.045418 
	C349.585541,30.922428 395.910675,30.906679 442.234650,31.080391 
	C451.328949,31.114492 460.470795,32.178139 468.058563,38.060093 
	C475.940887,44.170322 481.737732,51.919281 481.900940,62.179134 
	C482.488495,99.117851 482.844696,136.062836 482.901001,173.006058 
	C482.921326,186.324081 478.399872,197.862366 466.765747,205.783829 
	C459.260345,210.894119 450.721527,211.884094 442.168854,211.910233 
	C385.513397,212.083389 328.857056,211.960495 272.201416,212.100922 
	C268.882812,212.109146 265.316772,213.035294 262.296936,214.452713 
	C252.103683,219.237076 242.109833,224.445694 232.026306,229.465134 
	C230.597687,230.176270 229.094574,230.737732 226.999939,231.637299 
	C226.999939,209.766556 226.999939,188.633286 226.999939,167.000000 
M262.069489,80.529015 
	C261.618927,81.210602 261.221863,81.935654 260.709290,82.566902 
	C256.548248,87.691338 256.960510,93.594711 259.173767,98.965729 
	C261.649780,104.974571 266.839508,107.131371 273.600311,107.107567 
	C328.260406,106.915154 382.921478,107.002541 437.582245,106.996529 
	C446.863190,106.995506 451.995819,101.672012 451.999420,92.096016 
	C452.003113,82.391563 446.949951,77.004578 437.790497,77.003540 
	C382.963074,76.997337 328.135468,76.942886 273.308716,77.133728 
	C269.772064,77.146042 266.242096,79.074333 262.069489,80.529015 
M360.500000,166.999832 
	C386.316101,166.999649 412.132233,167.007980 437.948334,166.994614 
	C446.857483,166.989990 451.992279,161.572769 451.999390,152.242981 
	C452.006866,142.433853 447.025421,137.005646 437.950867,137.004395 
	C382.654388,136.996765 327.357910,136.996933 272.061432,137.004486 
	C263.197968,137.005692 258.006439,142.471130 258.000488,151.740738 
	C257.994232,161.511673 263.017334,166.990097 272.058289,166.994217 
	C301.205536,167.007477 330.352753,166.999573 360.500000,166.999832 
z"/>
<path fill="none" opacity="1.000000" stroke="none" 
	d="
M53.997955,301.999969 
	C56.751919,301.999969 59.033348,301.999969 61.653542,301.999969 
	C61.653542,332.125763 61.653542,361.640747 61.653542,392.505463 
	C54.651176,391.827698 47.634277,392.025269 41.131340,390.293182 
	C33.317009,388.211792 31.182510,381.089539 31.087132,373.844940 
	C30.850693,355.885986 30.563730,337.906708 31.168438,319.964966 
	C31.569780,308.057068 36.616924,301.756287 53.997955,301.999969 
z"/>
<path fill="none" opacity="1.000000" stroke="none" 
	d="
M483.000000,369.874939 
	C482.968506,381.699310 479.505493,389.113983 472.356903,390.595551 
	C465.983734,391.916443 459.325684,391.862915 452.360718,392.452576 
	C452.360718,361.861450 452.360718,332.305145 452.360718,301.564423 
	C459.305695,302.164276 466.101776,302.119049 472.599060,303.489899 
	C479.125732,304.866943 482.949890,312.262726 482.982300,321.399384 
	C483.039062,337.396973 482.999329,353.394897 483.000000,369.874939 
z"/>
<path fill="none" opacity="1.000000" stroke="none" 
	d="
M54.658245,125.141876 
	C60.418671,129.169479 62.737057,136.016739 60.541515,141.878159 
	C58.051407,148.526001 51.375999,152.125610 43.721523,150.948044 
	C38.600849,150.160263 33.523151,144.583145 32.995136,139.431717 
	C32.021614,129.933868 36.703819,125.276314 42.506413,123.567986 
	C46.022030,122.532959 50.379311,124.356773 54.658245,125.141876 
z"/>
<path fill="#1A8156" opacity="1.000000" stroke="none" 
	d="
M232.040390,392.000366 
	C251.177002,392.000641 269.820526,391.984497 288.463989,392.008606 
	C296.816437,392.019440 301.994690,397.696259 301.999146,406.743683 
	C302.003876,416.254639 296.964478,421.978485 288.460999,421.989532 
	C267.487122,422.016815 246.513123,422.016998 225.539246,421.989105 
	C217.036621,421.977783 211.994492,416.247131 212.000702,406.734741 
	C212.006607,397.683563 217.183960,392.053375 225.554764,392.003113 
	C227.552200,391.991119 229.549759,392.000702 232.040390,392.000366 
z"/>
<path fill="#1A8156" opacity="1.000000" stroke="none" 
	d="
M196.986450,350.431274 
	C195.544479,356.867493 191.901413,360.958801 185.808228,361.885468 
	C178.535965,362.991425 171.857910,361.648987 168.172363,354.223511 
	C167.404037,352.675537 167.066742,350.764252 167.051773,349.015930 
	C166.954849,337.695129 166.967728,326.372986 167.014542,315.051575 
	C167.044998,307.682922 172.802780,302.322571 180.240936,301.926788 
	C186.690094,301.583649 192.081558,302.998566 195.307724,308.985046 
	C196.275711,310.781219 196.898499,312.996155 196.924438,315.028900 
	C197.073151,326.681580 196.994522,338.337158 196.986450,350.431274 
z"/>
<path fill="#1A8156" opacity="1.000000" stroke="none" 
	d="
M346.965576,312.689697 
	C346.987885,324.947876 347.022186,336.769379 346.988007,348.590668 
	C346.964081,356.873383 341.232147,361.997131 332.107819,361.998932 
	C322.943970,362.000732 317.042694,356.881348 317.012329,348.797028 
	C316.970428,337.641724 316.977051,326.486115 317.010437,315.330750 
	C317.033478,307.627747 322.719940,302.413544 330.459473,301.904480 
	C338.713165,301.361633 344.055054,304.654022 346.965576,312.689697 
z"/>
<path fill="#1A8156" opacity="1.000000" stroke="none" 
	d="
M262.389252,80.320175 
	C266.242096,79.074333 269.772064,77.146042 273.308716,77.133728 
	C328.135468,76.942886 382.963074,76.997337 437.790497,77.003540 
	C446.949951,77.004578 452.003113,82.391563 451.999420,92.096016 
	C451.995819,101.672012 446.863190,106.995506 437.582245,106.996529 
	C382.921478,107.002541 328.260406,106.915154 273.600311,107.107567 
	C266.839508,107.131371 261.649780,104.974571 259.173767,98.965729 
	C256.960510,93.594711 256.548248,87.691338 260.709290,82.566902 
	C261.221863,81.935654 261.618927,81.210602 262.389252,80.320175 
z"/>
<path fill="#1A8156" opacity="1.000000" stroke="none" 
	d="
M360.000000,166.999832 
	C330.352753,166.999573 301.205536,167.007477 272.058289,166.994217 
	C263.017334,166.990097 257.994232,161.511673 258.000488,151.740738 
	C258.006439,142.471130 263.197968,137.005692 272.061432,137.004486 
	C327.357910,136.996933 382.654388,136.996765 437.950867,137.004395 
	C447.025421,137.005646 452.006866,142.433853 451.999390,152.242981 
	C451.992279,161.572769 446.857483,166.989990 437.948334,166.994614 
	C412.132233,167.007980 386.316101,166.999649 360.000000,166.999832 
z"/>
</svg>