<svg xmlns="http://www.w3.org/2000/svg" viewBox="0 0 475.32 542.09"><defs><style>.cls-1{fill:#005000;}</style></defs><title>chatboticon2</title><g id="Layer_2" data-name="Layer 2"><g id="Layer_1-2" data-name="Layer 1"><path class="cls-1" d="M34.13,542.09c-8.61-2.25-16.77-5.4-23-12.08C3.5,521.9,0,512.24.05,501.14c.09-17.64,0-35.28,0-52.93Q.07,245.76,0,43.3C0,25.86,6.32,12.52,22,4.24A39.87,39.87,0,0,1,40.94,0q158.79,0,317.58,0c24,0,40.78,17.05,40.85,41.22.1,38.82.13,77.63-.11,116.45,0,5,1.49,5.77,5.95,5.21,19.61-2.46,39.34-3.57,59.08-4.25,7.89-.28,12.39,4.83,10.66,12.4C464.61,216.32,452.38,261,433,303.31c-6.77,14.77-14.19,29.48-26.83,40.14-5.76,4.86-6.95,9.79-6.91,16.66.25,44.81-.36,89.64.34,134.44.33,21.27-6.81,40.72-34.09,47.54ZM380.35,360.22c-1.52.47-2.51.76-3.48,1.08-40.44,13.31-75.69,5-105.44-25.55-3.14-3.23-4.65-3.25-6.35.75-.35.81-.81,1.57-1.22,2.35-11.46,21.88-12.91,45.06-9.09,69,1.06,6.64-2,11.49-7.57,12.48s-9.91-2.69-11.06-9.43c-5.72-33.47-1.44-65,18.71-93.24a4.93,4.93,0,0,0,.5-5.74c-8.29-17.33-11.43-35.6-8.31-54.55,5.74-34.84,23.52-60.68,57.23-74,23-9.05,47.09-13.23,71.33-16.79,3.83-.56,4.85-1.75,4.84-5.55-.14-39.87-.06-79.74-.1-119.61,0-14.09-8.27-22.33-22.38-22.34q-158.25,0-316.48,0c-14.17,0-22.35,8.1-22.36,22.3Q19.08,241.68,19,442c0,4.05,1.17,4.92,5,4.92q175.7-.15,351.41,0c3.9,0,5-.9,5-4.92-.21-22.22-.1-44.45-.1-66.68ZM200.17,466.08q-87.87,0-175.73-.08c-4,0-5.59.78-5.44,5.18.33,10.4,0,20.82.16,31.22C19.39,514.63,27.75,523,40,523q159.59.09,319.17,0c12.7,0,21.06-8.59,21.19-21.39.1-9.88-.28-19.77.15-29.63.22-5-1.48-6-6.17-6Q287.24,466.21,200.17,466.08Zm70.17-166.64c1.37-1.12,1.92-1.55,2.44-2,21.56-19.3,46.72-31.87,74.38-39.71,7-2,12.13.5,13.77,6.09,1.57,5.38-1.88,10.21-8.68,12.25-5.06,1.51-10.16,2.91-15.13,4.68-20.14,7.2-38.38,17.58-53.9,32.49-2.51,2.41-2.82,4.12-.47,7,34.85,42.07,102.17,35.75,125.93-10.65,20.9-40.79,33-84.48,44.52-128.45.82-3.16-1-3-3.2-2.85-6.67.61-13.34,1.18-20,1.66-35,2.52-69.77,6.92-103.76,16.11-16.17,4.37-31.47,10.37-42.5,24C264.44,243.79,260.37,270,270.34,299.44Z"/><path class="cls-1" d="M152.8,190.3c-20.78-.58-40.12-5.25-55.47-20.58-4-4-4.48-8.94-1.55-12.87a9.22,9.22,0,0,1,11.77-2.8,17.9,17.9,0,0,1,3.38,2.52c16,14.21,34.83,16.6,55,13.14,10.6-1.81,20.14-6,28.13-13.58,4.35-4.13,10.09-3.65,13.65.35s3.16,9.37-1.18,13.7c-11.91,11.85-26.81,17.15-43.07,19.28C159.92,189.92,156.39,190,152.8,190.3Z"/><path class="cls-1" d="M118.35,389.84c-16.74,0-33.48,0-50.22,0-4.87,0-8.7-1.61-10.44-6.4a9.05,9.05,0,0,1,6.48-11.93,25.73,25.73,0,0,1,6.26-.68q48.38-.06,96.75,0a26.27,26.27,0,0,1,6.26.66,8.69,8.69,0,0,1,6.92,9.8c-.51,4.83-3.31,7.92-8.09,8.27-6,.44-12,.25-18,.26C142.32,389.86,130.34,389.84,118.35,389.84Z"/><path class="cls-1" d="M104.35,418.37c-12,0-24,.05-36,0-7.06-.05-11.07-3.46-11.15-9.23s3.93-9.68,10.81-9.72q36.49-.21,73,0c6.86,0,10.94,3.93,10.9,9.65s-4.08,9.26-11.09,9.3C128.68,418.42,116.52,418.37,104.35,418.37Z"/><path class="cls-1" d="M104.21,294.82c-11.28,0-22.56,0-33.84,0a24.89,24.89,0,0,1-6.3-.53,8.6,8.6,0,0,1-6.8-8.92c0-4.55,2.31-7.74,6.76-8.93a24.38,24.38,0,0,1,6.29-.57q34.37-.06,68.73,0a32.6,32.6,0,0,1,3.7.14c5.81.66,9.3,4.34,9.17,9.59-.12,5.06-3.52,8.49-9.13,9.1a44.17,44.17,0,0,1-4.75.16Z"/><path class="cls-1" d="M113.81,106.72c.27,7.15-2.77,11.2-7.93,11.88s-9.08-2.27-10.52-8c-.64-2.53-.84-5.2-2.73-7.33a9.41,9.41,0,0,0-15.9,3c-.52,1.49-.68,3.1-1.07,4.63-1.41,5.49-5.13,8.28-10.25,7.71s-8.16-4.4-8.18-10c-.06-12.93,10.18-25,23-27.19,14.11-2.38,27.55,5.24,32.09,18.21A23.86,23.86,0,0,1,113.81,106.72Z"/><path class="cls-1" d="M247,108.09c.11,5.92-3,9.93-8.11,10.52s-9.18-2.27-10.42-8.17c-1-4.71-2.27-8.92-7.76-10.09a9.08,9.08,0,0,0-10.84,6.07c-.44,1.34-.66,2.74-1,4.12-1.29,5.75-5.17,8.73-10.48,8.06-5.11-.64-8.38-4.91-8.1-10.58a28.31,28.31,0,0,1,20.59-25.95C228.49,77,246.69,90.14,247,108.09Z"/><path class="cls-1" d="M85.5,323.27c-6,0-12,.15-18,0-6.43-.21-10.1-3.6-10.27-9-.17-5.64,3.54-9.63,10.12-9.78q18.24-.42,36.49,0c6.51.15,10.25,4.26,10,9.88-.24,5.4-4,8.75-10.38,8.94C97.49,323.41,91.49,323.27,85.5,323.27Z"/><path class="cls-1" d="M218.55,494.92a18.91,18.91,0,1,1-37.82-.75,18.91,18.91,0,1,1,37.82.75Z"/><path class="cls-1" d="M325.56,295.13c10.95,2.17,23.38,4.63,35.8,7.12,3.79.76,7.63,1.38,11.34,2.45,5.58,1.6,8.46,6.16,7.38,11.09s-5.23,8.2-10.67,7.21q-24.41-4.46-48.65-9.76a8.87,8.87,0,0,1-6.69-10.54C315,298,318.86,295,325.56,295.13Z"/><path class="cls-1" d="M399.28,200.64c-.14.63-.4,2-.74,3.36-2.87,11.62-5.68,23.25-8.68,34.83-1.63,6.29-6.16,9.27-11.59,8S370,240.58,371.58,234c2.89-12,5.8-23.94,8.94-35.85,1.5-5.71,5.81-8.45,11-7.63C395.92,191.25,399.26,195.25,399.28,200.64Z"/><path class="cls-1" d="M394.63,285.18c-4.75,0-9.5.22-14.23-.06-5.67-.35-9.49-4.32-9.48-9.32s3.78-9.12,9.51-9.31c9.47-.31,19-.31,28.44,0,5.72.19,9.5,4.33,9.5,9.32s-3.82,9-9.52,9.3C404.12,285.4,399.37,285.18,394.63,285.18Z"/><path class="cls-1" d="M332.75,233c0,4.58.14,9.17,0,13.75-.23,5.88-3.79,9.62-9,9.82a9.08,9.08,0,0,1-9.77-9c-.4-9.68-.39-19.4,0-29.09.24-5.76,4.49-9.18,9.76-9s8.79,3.91,9,9.78C332.89,223.83,332.75,228.42,332.75,233Z"/></g></g></svg>