<svg xmlns="http://www.w3.org/2000/svg" viewBox="0 0 594.85 564.05"><defs><style>.cls-1{fill:#005000;}</style></defs><title>chatboticon1</title><g id="Layer_2" data-name="Layer 2"><g id="Layer_1-2" data-name="Layer 1"><path class="cls-1" d="M594.85,228.54V492.3c-1.91,2.26-1.22,5.17-1.84,7.75-9.33,39.05-41.16,63.94-82.49,64q-212.34.09-424.68,0a87.81,87.81,0,0,1-28.58-4.27C22.86,548,1.77,517.91,1.71,479.67Q1.52,360,1.7,240.32A88.21,88.21,0,0,1,4,218.43c9.66-37.78,41-62,80.88-62.07q93.24-.18,186.49,0h6.79a33.29,33.29,0,0,0-5.23-9c-14.63-19.51-34.06-33-55.32-44.21-2.82-1.49-3.84-.51-5.48,1.62-23.44,30.54-60.53,37.61-93.42,17.61C80.14,98.94,43.6,72.48,6.51,46.84,1.83,43.61-.88,39.31.26,33.52c1.19-6.05,5.57-9,11.3-10.26,46.62-10.58,93.29-21,141.26-23,15.48-.66,31.08-.57,44.31,9.85,20.51,16.16,29.47,37.2,27.15,63.12-.25,2.85-.94,5.3,2.75,7.16,28.34,14.25,53.23,32.73,71.27,60.08,15.53-23.66,36.31-40.71,60.19-54.2,3-1.67,2.16-3.49,1.66-5.75-2.93-13.18-2.65-26.34,2.48-38.82C372,19,386.66,2.6,413.09.6c17.5-1.33,34.8.51,52.1,2.57,36.35,4.34,72.06,12.13,107.66,20.48,5.42,1.28,9.06,4.51,10.1,10s-1.38,9.8-5.89,12.93c-37.39,25.89-74.24,52.58-113.16,76.17-30.44,18.45-64.86,13.33-88.93-13-2.23-2.45-3.62-2.42-6.2-.88-10,6-19.65,12.44-28.26,20.28S324,145.13,318,156.33h7.7c63.52,0,127-.36,190.55.29,28.79.3,50.82,14.27,66.48,38.34C589.43,205.21,592.33,216.8,594.85,228.54ZM298.26,539q68.83,0,137.67,0c26.91,0,53.83.34,80.73-.26,26.69-.59,49.73-22.47,52.76-49a87.56,87.56,0,0,0,.65-9.84q.06-119.94,0-239.89c-.05-34-24.43-58.93-57.74-58.95q-214.05-.13-428.09,0c-32.95,0-57.39,24.75-57.62,57.77,0,4.26,0,8.52,0,12.78q0,114.14-.05,228.28c0,9.46,1.31,18.55,5.63,27C43.33,528.57,61.35,539,85.67,539Q192,539,298.26,539ZM43.67,41.81c1.24,1.07,1.76,1.61,2.37,2,28.43,19.41,56.42,39.47,85.9,57.32a53.75,53.75,0,0,0,18.88,7.07c14,2.41,32.38-5.38,38.87-16.59-2-.77-3.95-1.63-6-2.25-8.12-2.49-16.32-4.74-24.38-7.41-7-2.32-10.79-8.53-9.41-14.66,1.5-6.7,7.28-10.54,14.92-9.81a35.29,35.29,0,0,1,4.52,1c10.14,2.31,19.89,5.94,29.84,9.24,2.2-25.2-16.37-43.8-41.71-42.84-26.95,1-53.4,5.66-79.88,10.17C66.5,36.93,55.47,39.44,43.67,41.81Zm496.51,0c-40.07-8-78.69-16-118.32-16.81-5.5-.11-11.26-.5-16.47,2.35-14.18,7.76-23.26,25.13-21.84,41.38.34,3.86,1.74,3.88,4.8,2.64,6.62-2.68,13.3-5.27,20.1-7.45,8.25-2.64,16.39-6,25.16-6.45,8.35-.4,13.93,5.93,12.84,14.12-.84,6.2-5.05,9.27-10.69,10.81-11.74,3.2-23.31,6.91-34.7,11.23-4.79,1.82-4.05,3.45-.63,5.85,15.38,10.81,31.74,12.48,48,3.11C479.78,84.53,508.92,63.05,540.18,41.83Z"/><path class="cls-1" d="M384.56,298c0-17.24,0-34.47,0-51.7,0-11.34,4.51-16,15.72-16.08q27.88-.16,55.76,0c10.8.08,15.43,4.83,15.45,15.78q.09,52.27,0,104.55c0,10.92-4.68,15.74-15.45,15.82q-27.87.22-55.76,0c-11.13-.07-15.68-4.84-15.71-16.12C384.53,332.89,384.56,315.46,384.56,298Z"/><path class="cls-1" d="M125.21,298.24c0-17.42,0-34.85,0-52.27,0-11.06,4.39-15.63,15.35-15.7q27.88-.2,55.75,0c11.05.07,15.44,4.54,15.46,15.59q.08,52.56,0,105.12c0,10.88-4.58,15.4-15.63,15.47q-27.59.15-55.17,0c-11.29-.06-15.74-4.64-15.76-15.94C125.18,333.08,125.21,315.66,125.21,298.24Z"/><path class="cls-1" d="M300.52,415.6c14.6.54,30.31,2.81,43.88,12.12,21.1,14.46,21,35.27.17,50-22.39,15.85-69.3,16.09-92,.46s-21.12-40.12,3.35-52.94C268.22,418.84,283.54,415.4,300.52,415.6Z"/></g></g></svg>