<svg xmlns="http://www.w3.org/2000/svg" viewBox="0 0 470.03 487.46"><title>Asset 1</title><g id="Layer_2" data-name="Layer 2"><g id="Layer_1-2" data-name="Layer 1"><path d="M121.32,487.46c-.09-13.47-.35-26.95-.17-40.42.06-4.18-1.35-7.06-4.08-10-16.21-17.67-34.75-33-51.18-50.41-22.07-23.42-41.91-48.42-53-79.24C-5.31,256.9-3.67,206.59,14.24,156.54A241.43,241.43,0,0,1,61.78,77.08C80.2,56.33,98.66,35.61,116,13.89a47.9,47.9,0,0,0,6-9.1c2.85-5.92,11.74-6.52,14.88-.86,6.85,12.34,16.63,22.33,25.62,32.94C176.15,53.09,190.19,69,204.3,84.93c2.63,3,2.19,4.5-.81,6.39-3.19,2-5.91,6.57-9.12,6.15-2.75-.37-5-4.86-7.37-7.6-18.61-21.42-37.74-42.41-55.45-64.61-.59-.74-1.1-1.54-1.9-2.66-23.24,30.49-51.07,56.23-72.74,87C27.78,150.94,13.77,197.2,16.77,248c2.27,38.4,15.29,72.88,39.63,103a380.09,380.09,0,0,0,39.53,42.39c8.28,7.54,16.17,15.51,24.29,23.34,1.34-1.47.8-3,.8-4.3,0-18.55,0-37.11.09-55.67a9.63,9.63,0,0,0-2.83-7.15q-40.75-44.3-81.42-88.65c-2.41-2.62-3-4.19.13-6.52s5.66-6.82,8.63-7S51,252.19,53.53,255q32,34.86,64,69.77c.82.9,1.42,2.12,2.87,2.4,1.19-1.37.6-3,.61-4.51,0-18.24,0-36.48.09-54.72a10.88,10.88,0,0,0-3-8c-21.83-24.09-43.49-48.34-65.36-72.39-2.49-2.74-2.37-4.18.46-6.15,3.19-2.21,5.64-7.27,9-6.82,2.92.39,5.31,5,7.85,7.81q23.59,26.14,47.14,52.31c.94,1,1.81,2.16,2.65,3.18,1.84-1.19,1.21-2.59,1.22-3.73,0-16.18,0-32.36.07-48.53a10.77,10.77,0,0,0-2.31-7C104.63,159.84,90.66,141,76.45,122.32c-2.15-2.82-2.3-4.41.86-6.19,3.39-1.9,6.2-6.8,9.6-6,2.91.71,4.87,5.44,7.15,8.47q11.6,15.38,23.14,30.8c.92,1.22,1.94,2.37,3,3.69,1.41-1.86.8-3.65.81-5.29,0-26,.1-52,0-78,0-3.68.93-4.87,4.75-4.82,11.58.15,11.58,0,11.58,11.71V153c2-.6,2.52-2,3.31-3.08,9.35-12.4,18.77-24.76,27.92-37.32,2.23-3.06,3.88-3.4,6.58-.83s7.9,4,8.24,7.19c.28,2.72-3.64,5.93-5.82,8.84q-18.94,25.32-37.95,50.61c-1.13,1.51-2.31,2.9-2.31,5,.06,17.91,0,35.82,0,53.77,2.09.42,2.54-1.29,3.37-2.21q26.31-29.12,52.48-58.38c2.29-2.58,3.73-3.22,6.19-.43,2.59,2.94,7.84,4.92,7.88,8.25,0,2.85-4.39,5.79-6.93,8.62q-30.21,33.6-60.49,67.17a8.12,8.12,0,0,0-2.56,5.83c.1,19.67.05,39.34.06,59,0,.61.13,1.22.32,2.88,1.94-2.05,3.39-3.55,4.81-5.09,7.29-8,14.65-15.84,21.81-23.9,1.89-2.13,3.14-2.57,5.23-.34,2.79,3,7.71,5.43,8.26,8.69.52,3-4.55,5.93-7.2,8.85Q155.35,332.88,140,349.46c-1.53,1.66-2.78,3.21-2.76,5.75.1,20.14.06,40.29.07,60.43a30.35,30.35,0,0,0,.51,3.16c5.13-5.35,9.49-10.06,14-14.58,6-5.93,12.16-11.62,18.08-17.58,2.1-2.12,3.56-2.64,5.62-.05,2.54,3.19,7.84,5.64,7.65,9.06-.16,2.94-5,5.69-7.85,8.43-12.12,11.65-24.35,23.18-35.61,35.69-1.27,1.41-2.5,2.68-2.48,4.88.15,14.27.18,28.54.24,42.81Z"/><path d="M440.15,487.46c-7.38-2.16-12.91-6.92-18.2-12.3C407.06,460,391.9,445.11,377,430c-2.14-2.16-3.54-2.52-6.32-.86-73.11,43.51-165.46,3-182.17-80.64-8.42-42.09,3.73-78.94,33.51-109.94,2.37-2.47,3.79-2.4,5.83.25,2.31,3,6.67,5.48,7.08,8.6.44,3.32-4.52,5.53-6.89,8.44-26,32-33.34,67.85-18.71,106.43s43.58,61.36,84.5,67.17C358,438.55,415,387.08,413.33,322.28a101.45,101.45,0,0,0-16.81-54.2c-2-3.09-1.63-4.63,1.39-6.12a15.81,15.81,0,0,0,2-1.34c8-5.67,8.19-5.77,12.87,2.68q34.39,62.08-.52,124c-1.86,3.3-1.58,4.92,1,7.46,15.93,15.69,31.29,32,47.58,47.26,17,15.91,8.77,40.87-10.43,44.89-.27.05-.48.38-.71.59Zm13.67-25.57c0-3.11-1.63-5.35-3.7-7.42q-23.72-23.69-47.35-47.42c-2-2-3.12-2.54-5.12,0a41.52,41.52,0,0,1-7.35,7.4c-3.14,2.37-2.33,3.81,0,6.15,15.44,15.25,30.74,30.65,46.1,46a22.75,22.75,0,0,0,3.58,3.09,8.64,8.64,0,0,0,9.45.15A8.45,8.45,0,0,0,453.82,461.89Z"/><path d="M301,282.59c0-8.24-.18-16.48.09-24.72.1-3.12-1-4.33-3.8-5.38-46.4-17.55-75.11-50.58-84.7-99.25C199.13,85,245.26,16.57,313.07,3,387.4-11.78,456.29,36.11,468.4,111c11,68.1-37.52,135.74-105.52,146.88a11,11,0,0,0-7.39,4.41c-13.25,16.6-26.62,33.11-39.89,49.69-2.76,3.44-5.74,6.06-10.5,4.32-5-1.8-5.55-5.86-5.47-10.45.14-7.76,0-15.53,0-23.3Zm16.36,1.26c8.71-10.8,17.65-21.3,25.86-32.33,4.42-5.94,9.61-8.57,16.87-9.71,61.27-9.63,104.09-71.26,92.11-132.07C440.05,48.24,384.55,9,322.51,18.14c-52.38,7.7-93.79,54.15-95.49,107.15-1.7,53.27,30.85,98.39,82.25,114,6.48,2,8.09,4.19,8.07,11C317.31,261.3,317.33,272.37,317.33,283.85Z"/><path d="M308.52,414.71c-41.31-.23-76.57-27.22-87-65.91a89.93,89.93,0,0,1,41.05-100.87c3.22-1.91,5.05-2.35,6.56,1.73,1.26,3.39,4.64,6.66,4.39,9.77s-5.2,3.95-8,6a73.32,73.32,0,0,0,31.89,132.38c46.38,7,87.85-32.71,83.09-79.42a71.09,71.09,0,0,0-12.75-34.83c-1.78-2.48-1.4-3.67.93-5.18a45.22,45.22,0,0,0,6.78-5.21c2.63-2.51,4-1.55,5.79,1,37.46,52.87,5.6,128.72-58.5,139.23C317.73,414.22,312.68,414.43,308.52,414.71Z"/><path d="M258.82,325c-8.33,0-8.49,0-7.19-8.43,2.77-17.81,12.11-31.22,27.43-40.63,2.52-1.54,3.76-1.25,4.92,1.46,1.48,3.48,4.49,6.77,4.64,10.24.16,3.78-5.07,4.34-7.62,6.74-7.27,6.88-12.29,14.94-13.25,25-.43,4.59-1.93,6.56-6.56,5.68A13.38,13.38,0,0,0,258.82,325Z"/><path d="M409.24,71.26c-.14,1.58-1.35,2-2.24,2.39-9.1,3.48-10.24,10.39-10,19.26.58,24.08.28,48.19.11,72.29,0,3.56,1.06,5.42,4.3,6.78,4.38,1.82,8.48,4.28,12.79,6.28,2.28,1.05,2.62,2.22,1.38,4.39a82.37,82.37,0,0,0-4.45,8.92c-1,2.42-2.19,2.38-4.31,1.25-6.16-3.27-12.48-6.2-18.64-9.46a5.87,5.87,0,0,0-6.15-.13c-10,5.15-20,10.2-30.17,15.07-2.72,1.31-3.63,3-3.47,5.9.22,4,0,7.93.08,11.89.08,2.44-.86,3.21-3.31,3.35-13,.74-13.32.8-12.86-12.16.2-5.61-1.66-8.43-6.74-10.65-9.12-4-17.93-8.72-26.79-13.31a5.87,5.87,0,0,0-6.15,0c-6.15,3.26-12.49,6.17-18.64,9.44-2.28,1.21-3.36,1.16-4.69-1.36-6.06-11.44-6.35-11.86,5.45-17,6.81-2.95,9-6.72,8.82-14.17-.57-24.4-.38-48.83-.08-73.25.06-5.07-1.36-8-5.74-10.6-7.1-4.15-6.93-4.44-2.47-11.14s5-7.36,11.17-2.2c7.12,5.94,13.41,6.74,21.3,1.41,6.12-4.13,13.12-7,19.92-10,3.65-1.61,4.87-3.83,4.56-7.65-.3-3.62,0-7.29-.1-10.93-.08-2.46.85-3.17,3.31-3.28,13-.54,13.33-.6,12.87,12.12-.21,5.54,1.41,8.51,6.55,10.73,8.42,3.63,16.58,7.89,24.64,12.28,3.3,1.8,5.64,1.53,8.46-.69,3.1-2.44,6.66-4.3,9.81-6.69,2.4-1.82,3.68-1.27,5.1,1.15C404.84,64.85,407.15,68.07,409.24,71.26Zm-28.3,55.08c0-12-.08-24.09.06-36.13,0-2.74-.8-4.26-3.33-5.49q-17.09-8.3-34-17a6.87,6.87,0,0,0-7.06.15c-11.13,5.69-22.28,11.34-33.53,16.77-2.69,1.3-3.62,2.82-3.61,5.78q.18,35.66,0,71.3c0,3,1,4.51,3.61,5.78q17.08,8.3,34,17a6,6,0,0,0,6.17.15q17.12-8.75,34.39-17.18c2.48-1.21,3.41-2.66,3.37-5.45C380.85,150.11,380.94,138.23,380.94,126.34Z"/><path d="M267.09,105.84c0,8,0,8-8,8-8.25,0-8.25,0-8.25-8.27,0-8,0-8,8-8C267.09,97.56,267.09,97.56,267.09,105.84Z"/><path d="M420.55,120c-8.14,0-8.14,0-8.14-8.21,0-8,0-8,7.83-8,8.4,0,8.4,0,8.4,8.43C428.64,120,428.64,120,420.55,120Z"/><path d="M259,138.21c8.09,0,8.09,0,8.09,8.25,0,8,0,8-7.9,8-8.34,0-8.34,0-8.34-8.49C250.85,138.21,250.85,138.21,259,138.21Z"/><path d="M307.81,211.27c0,8.12,0,8.12-8.24,8.12-8,0-8,0-8-7.89,0-8.37,0-8.37,8.46-8.37C307.81,203.13,307.81,203.13,307.81,211.27Z"/><path d="M380.94,211.55c0,7.84,0,7.84-7.72,7.84-8.53,0-8.59,0-8.51-8.41.08-9.17-1.19-7.75,7.68-7.84C380.94,203.06,380.94,203.12,380.94,211.55Z"/><path d="M348.76,113.34c-.11,4.42-.36,8.85-.28,13.27,0,2.66-.88,3.66-3.57,3.57-15.87-.54-12.26,3-12.81-12.79-.09-2.63.79-3.62,3.51-3.61,4.41,0,8.85.5,13.25-.34Z"/><path d="M332.14,97.69c0,8.09,0,8.09-8.27,8.09-8,0-8,0-8-7.88,0-8.34,0-8.34,8.53-8.34C332.14,89.56,332.14,89.56,332.14,97.69Z"/><path d="M332.14,154.86c0,7.83,0,7.83-7.74,7.83-8.56,0-8.62,0-8.55-8.45.08-9-1.2-7.72,7.75-7.8C332.14,146.37,332.14,146.42,332.14,154.86Z"/><path d="M348.86,113.44c-.94-4.39-.22-8.83-.41-13.25-.08-1.73.68-2.69,2.51-2.61.48,0,1,0,1.43,0,13.05-.4,13.56.19,12.34,13.33-.18,1.89-.66,3-2.74,2.93-4.4-.23-8.85.6-13.23-.48Z"/><path d="M364.69,154.68c0,8,0,8-8,8-8.23,0-8.23,0-8.23-8.29,0-8,0-8,8-8C364.7,146.42,364.7,146.42,364.69,154.68Z"/></g></g></svg>