<svg xmlns="http://www.w3.org/2000/svg" viewBox="0 0 395.97 487.39"><title>deseaseicon3</title><g id="Layer_2" data-name="Layer 2"><g id="Layer_1-2" data-name="Layer 1"><path d="M65.67,1C75.43,1.9,85.2,2.73,95,3.83c43,4.83,85.3,12.38,125.06,30.35,20,9,38.17,20.68,51.95,38.24,8.26,10.52,14.09,22.24,16.41,35.42.82,4.66,2.65,5.4,7.05,5.36,60.87-.48,106.08,26.33,133,80.67C470.62,279,414.74,382.37,320.7,395.15c-34.66,4.71-66.83-2.11-96.35-20.87-3.23-2-4.59-.73-6.6,1.29Q165,428.45,112.12,481.24c-9.51,9.52-17.29,9.47-26.89-.13-4.15-4.15-8.32-8.28-12.45-12.46-7.68-7.76-7.67-16.39.13-24.2q53.31-53.35,106.74-106.58c2.83-2.82,2.87-4.51.79-7.81-15.8-25-22.77-52.37-21.54-81.88.1-2.3.69-4.4-3-5.07-27.1-5-46.67-21-61.67-43.24-16.16-24-25.38-50.93-32.27-78.73C53.17,85.65,48.76,49.51,46.77,13c-.26-4.93.65-9,4.62-12.07Zm94.27,122.37c-1.47-.92-3.17-1.6-4.37-2.79q-17.41-17.23-34.69-34.61c-.89-.9-1.83-1.76-2.67-2.71-3.26-3.66-3.41-8-.41-11.09,3.2-3.28,7.51-3.12,11.4.44.82.75,1.58,1.56,2.36,2.34q17.67,17.67,35.35,35.3c1,1,1.74,2.66,3.66,2.66.91-1.85.53-3.78.61-5.62.33-7.45.45-14.91.91-22.34.28-4.61,3.52-7.51,7.67-7.41s7.18,3.23,7.5,7.74a38.1,38.1,0,0,1-.1,4.27q-.69,17.84-1.38,35.65c-.07,1.85-.4,3.68,1.26,5.29,5.69,5.51,11.23,11.18,16.86,16.76.74.73,1.34,1.73,2.79,1.2,3-1.11,7.14-6.73,7.27-10.17l.87-24.72c0-.63,0-1.27.09-1.9.39-5,3.27-8,7.65-7.91,4.53,0,7.56,3.35,7.61,8.51.07,6.26,0,12.53,0,18.9,1.47.13,2.66-1.1,4-1.8a131.65,131.65,0,0,1,36-13.07c3.74-.73,4-2.1,3.28-5.42a74.11,74.11,0,0,0-21.94-38.14c-14.5-13.8-31.9-22.83-50.39-29.8-43-16.19-87.83-22.82-133.37-25.94-4.22-.29-5.41.54-5.11,4.93,2.58,37.89,7.86,75.33,18.64,111.81,7.13,24.13,16.42,47.32,32.67,67,11.44,13.87,25.61,23.47,43.49,27.1,1.92.39,3.64,1.18,4.22-1.83a132.88,132.88,0,0,1,14.5-39.52c1.5-2.72.16-2.86-2-2.76-5.23.25-10.46.54-15.69.64-5.44.11-9-3-9.09-7.56-.07-4.41,3-7.44,8.41-7.72,7.91-.42,15.85-.87,23.76-.74,5,.08,8.24-1.65,11.17-5.55,1.79-2.39,1.6-3.51-.38-5.4q-7.74-7.4-15.15-15.13a6.92,6.92,0,0,0-5.83-2.33c-12.2.54-24.4.92-36.6,1.36a34.64,34.64,0,0,1-3.8.13c-4.6-.32-7.56-3.27-7.63-7.51a7.1,7.1,0,0,1,6.9-7.61c5.84-.51,11.72-.46,17.58-.74C151.49,125.37,155.15,125.71,159.94,123.32ZM300.37,381.38c69.46.37,126.53-56.5,126.77-126.31.25-69.59-55.89-126.21-125.66-126.76a126.54,126.54,0,1,0-1.11,253.07ZM98.64,472.66c.91-.79,1.78-1.46,2.55-2.23q9.27-9.23,18.5-18.47c21.4-21.4,42.75-42.86,64.27-64.14,2.6-2.56,2.57-3.92-.07-6.25a151.42,151.42,0,0,1-10.76-10.74c-1.79-1.93-2.89-2.08-4.87-.09q-41.76,41.94-83.69,83.71c-1.45,1.45-2.1,2.44-.27,4.17,4.26,4,8.32,8.26,12.47,12.4C97.32,471.57,97.94,472,98.64,472.66ZM208.86,364c-1.25-1.46-1.71-2.07-2.24-2.6-2.11-2.14-4.24-4.25-6.37-6.38-8.4-8.41-8.35-8.36-16.57.24-1.62,1.71-2.05,2.77-.11,4.5,2.82,2.53,5.4,5.33,8.09,8,6.11,6.1,6.07,6.07,12.21,0A48.51,48.51,0,0,1,208.86,364Z" transform="translate(-46.73 -0.95)"/><path d="M300.53,149.19a105.66,105.66,0,0,1,.35,211.31C242.54,360.72,195,313.18,195,254.7A105.33,105.33,0,0,1,300.53,149.19ZM211,265.69c7.71-7.86,14.28-14.71,21.05-21.35,2.23-2.18,3-4,2.28-7.35a30.33,30.33,0,0,1,47.22-31.3c10.15,7.22,15.48,20.1,11.77,31.76-1.8,5.62-.49,8.85,3.64,12a8.86,8.86,0,0,1,1.67,1.68c1.94,2.58,3.21,2.15,5.36-.22,8.8-9.68,19.87-13.82,32.91-12.14,12.51,1.62,21.54,8.53,28.28,19.55,7-7,13.69-14,20.65-20.63,2.28-2.2,2.54-4.12,1.73-7.1-10.52-39-46.38-66.15-87.4-66s-76.9,28-87,67.27A90.15,90.15,0,0,0,211,265.69Zm178.73-10.6c-6.34,6.41-12.67,12.84-19.05,19.21a5.6,5.6,0,0,0-1.46,3.84c-2,20.55-17.49,35.12-37.39,35.12-19.64,0-36.49-14.61-37-34.63-.23-9-3.81-14.24-9.67-19.38a10.05,10.05,0,0,1-1.34-1.35c-1.49-2-3-2-5.23-.84-10.71,5.72-21.36,5.24-31.5-1.37-2.45-1.6-3.61-1.29-5.47.62-7.75,7.95-15.51,15.9-23.58,23.51-2.86,2.69-3,4.89-1.53,8.21,14.07,32.25,38.25,52.05,73.22,56.19,36.36,4.3,65.44-9.75,86.28-39.92C386.06,289.76,390.56,273.29,389.74,255.09ZM331.7,298a22.13,22.13,0,1,0-22.11-22A22.12,22.12,0,0,0,331.7,298ZM279,230.69a15.21,15.21,0,0,0-14.82-15.38,15.4,15.4,0,0,0-15.31,15,15.15,15.15,0,0,0,14.9,15.28A15,15,0,0,0,279,230.69Z" transform="translate(-46.73 -0.95)"/></g></g></svg>