<svg xmlns="http://www.w3.org/2000/svg" viewBox="0 0 475.85 391.37"><title>Asset 2</title><g id="Layer_2" data-name="Layer 2"><g id="Layer_1-2" data-name="Layer 1"><path d="M103.64,194.07c7.37-7.51,14-15.48,21.85-22,9.24-7.62,12.64-16.27,11.88-28.29-1.09-17.06-.29-34.24-.26-51.37a16.68,16.68,0,0,1,.4-4.7A5,5,0,0,1,143,84.07,4.72,4.72,0,0,1,147.69,88a25.61,25.61,0,0,1,.39,5.19q0,24.73,0,49.49v5l1.42.86c2.16-2.42,4.22-4.94,6.5-7.24,7.91-8,15.85-16,23.9-23.88a8.4,8.4,0,0,0,2.75-6.66c-.1-20.78,0-41.55,0-62.33,0-1.27,0-2.54,0-3.81,0-3.56,1.66-5.91,5.31-6s5.39,2.29,5.4,5.85c0,10.63,0,21.25,0,31.88v26.15c2.41-.21,3.24-1.93,4.4-3.08,8.67-8.6,17.27-17.28,25.92-25.89,3.37-3.36,6.82-3.91,9.07-1.31,3,3.45,1.37,6.33-1.4,9.08Q196.16,116.49,161,151.65a62,62,0,0,1-4.91,3.95c3.23,1.94,5.76,1.11,8.12,1.26,3.61.22,6.31,1.52,6.27,5.56s-2.77,5.35-6.37,5.46a9.28,9.28,0,0,1-1.9,0c-12.58-2.27-22,2.35-29.93,12.24-6.2,7.69-13.89,14.18-21.91,22.18h16.28c9.84,0,19.67.06,29.5,0,3.95,0,7.32,1,7.33,5.46s-3.43,5.42-7.33,5.41c-17.45,0-34.9,0-52.35,0-2.43,0-4.53.2-6.45,2.16-9.77,10-19.7,19.78-29.55,29.66-.63.63-1.59,1.12-1.4,2.4,1.38.93,3,.43,4.5.43,17,0,33.95,0,50.92,0,5.87,0,8.42,1.6,8.48,5.26s-2.63,5.47-8.28,5.48c-21.26,0-42.51.06-63.76-.07a9,9,0,0,0-7.06,3c-10.33,10.51-20.82,20.87-31.41,31.44.68.4,1,.81,1.41.81,48.81,1.18,96.45-4.86,142.1-23.11,3.23-1.3,6.38-2.8,9.56-4.22,4.77-2.14,8-1.58,9.33,1.92,1.65,4.38-1.17,6.35-4.62,7.93a300.77,300.77,0,0,1-66.86,21.21c-33.44,6.65-67.15,9.48-101.23,6.8-6.85-.54-8.19-1.78-8.62-8.56-2.92-46.33,1.44-91.88,15.43-136.24C29.65,117,51.52,80.13,87.4,52.73c28.07-21.43,60-34.49,94.1-42.6C219,1.22,256.94-1.51,295.32.75c7.17.43,8.37,1.41,8.8,8.4a409.24,409.24,0,0,1-1.9,70.78c-.55,4.86-2.9,7.08-6.46,6.37-4.59-.91-4.83-4.37-4.4-8.1a382.79,382.79,0,0,0,2.24-62.69c-.15-3-1.13-4.14-4.16-4.22C235.79,9.8,183.44,16,133.81,37.93,83.59,60.13,50.42,98.08,31.54,149.14c-11.07,30-16.88,61-19.29,92.74a418.16,418.16,0,0,0-.9,43.65c1.81-1.65,3.07-2.7,4.22-3.85,9.21-9.19,18.31-18.49,27.66-27.53a10.4,10.4,0,0,0,3.33-8.34c-.13-21.25,0-42.51-.1-63.76,0-3.49.6-6.44,4.53-7.25,3.67-.76,6.22,2,6.23,6.91q.06,26.17,0,52.34v4.67c2.32-.21,3.06-1.79,4.12-2.84C70.25,227.06,79,218.08,88,209.37a11.48,11.48,0,0,0,3.85-9.11c-.18-20.62-.09-41.24-.08-61.86a27.75,27.75,0,0,1,.28-4.74A4.92,4.92,0,0,1,97,129.33a5.12,5.12,0,0,1,5.5,4.28,19.46,19.46,0,0,1,.22,4.26c0,17,0,33.95,0,50.92C102.74,190.29,102.27,191.89,103.64,194.07Z"/><path d="M389.05,204a97.65,97.65,0,0,1-10.16,46.38c-1.47,3-1.05,4.56,1.42,6.73,27.31,23.94,54.45,48.08,81.74,72,11.53,10.12,16.56,22.38,12.3,37.4-7.18,25.37-39.15,33.36-57.51,14.19-12-12.59-23.25-26-34.81-39.07-12.93-14.61-25.9-29.18-38.68-43.91-2.27-2.61-3.81-3-6.92-1.16-63.79,37.24-144.06,1.72-159.68-70.56-12.56-58.12,26-116.22,84.5-127.42A107.52,107.52,0,0,1,389,193.55,104.22,104.22,0,0,1,389.05,204Zm-107.2-96.55a96.55,96.55,0,1,0,96.8,96.37A96.52,96.52,0,0,0,281.85,107.46ZM442.36,380.4a29.76,29.76,0,0,0,4.22-.57c9.06-2.27,15.17-7.91,17.51-16.91s0-17.07-6.89-23.36c-10.2-9.27-20.62-18.29-30.95-27.41-17.2-15.21-34.45-30.38-51.57-45.69-2.43-2.18-3.64-2.44-5.64.54a94.08,94.08,0,0,1-17.32,18.83c-1.62,1.39-2.62,2.25-.69,4.42q36.62,41.21,73.09,82.52C428.65,377.87,434.53,380.37,442.36,380.4Z"/><path d="M252.08,195.31c22,1.08,41.06,10.31,54.76,29.4,5.92,8.26,8.91,17.56,6.61,27.83-3.18,14.17-15.38,23.77-32.22,24.83-24.32,1.53-44.37-7.38-59.78-26.2-7.2-8.78-11.17-18.92-8.75-30.49,2.93-14,15.07-23.58,31.05-25C246.12,195.49,248.5,195.47,252.08,195.31Zm24,71.73c2.59-.34,5.78-.52,8.86-1.19,16.95-3.67,23.13-17.93,14.34-32.89-10.93-18.62-37.08-30.23-58.25-25.86-10.34,2.14-17.19,8.91-18,18.25-.58,6.65,2,12.49,5.92,17.64C240.6,258.34,256.35,266,276.05,267Z"/><path d="M358.5,177.41c-.33,10.59-3.19,20.32-10.09,28.56-11.41,13.65-29.22,11.84-37.67-3.76-8-14.77-5-37.2,6.56-49.28,11.85-12.37,28.75-10,36.69,5.22C357.15,164.18,358.22,170.7,358.5,177.41Zm-11.05.53a31.58,31.58,0,0,0-3.11-14.74c-4.28-8.48-12.31-9.69-18.95-2.94-8.49,8.63-10.85,26.16-5,36.85,4.75,8.61,12.87,9.63,19.27,2.24C345,193.25,347.26,185.94,347.45,177.94Z"/><path d="M282.64,144.67c-.36,7.87-2.59,15.64-8.93,21.69-8.16,7.79-19.4,6.51-25.74-2.82-7.53-11.08-5-30,5.2-38.73,8.23-7,19-5.56,25,3.49C281.38,133.06,282.56,138.41,282.64,144.67Zm-11-.65a18,18,0,0,0-2.13-9c-2.59-4.31-6.12-4.83-9.73-1.42-5.4,5.11-6.92,17.17-3,23.43,2.69,4.25,6.19,4.67,9.75,1S271.38,149.63,271.64,144Z"/><path d="M210.28,172.9a5.32,5.32,0,0,1,2.83-4.62c3.9-2.38,7.81-4.75,11.76-7,3-1.71,5.92-1.74,7.89,1.35,2.1,3.29.8,6-2.34,8-4,2.46-8,5-12.22,7.17A5.28,5.28,0,0,1,210.28,172.9Z"/><path d="M343.31,250.66c-2.93-.44-7.63-1-12.27-1.87-3.19-.6-5.05-2.72-4.58-6.1s2.82-4.88,6.08-4.52c4.69.53,9.36,1.34,14,2,3.55.52,5.53,2.64,5.06,6.14S348.58,251.27,343.31,250.66Z"/><path d="M308.57,132.52a5.17,5.17,0,0,1,5,3.18c1,2.25.68,4.58-1.29,6-4.47,3.2-9.05,6.29-13.8,9a4.79,4.79,0,0,1-6.37-1.46c-1.61-2.09-1.94-4.73,0-6.49a65.76,65.76,0,0,1,15.26-10.07A3.6,3.6,0,0,1,308.57,132.52Z"/><path d="M253.12,249.91a18,18,0,0,1-18.07-17.64,18,18,0,1,1,18.07,17.64Zm6.89-18a6.76,6.76,0,0,0-6.87-7,6.89,6.89,0,0,0-7.14,6.75,7.09,7.09,0,0,0,7.18,7.28A6.92,6.92,0,0,0,260,231.94Z"/></g></g></svg>