<svg xmlns="http://www.w3.org/2000/svg" data-name="Layer 1" viewBox="0 0 64 80" x="0px" y="0px"><path d="M51.6,18.82l2.89-2.89-1.42-1.42L50.18,17.4A7,7,0,0,0,47,16.08V11H45v5.08a7,7,0,0,0-3.18,1.32l-2.89-2.89-1.42,1.42,2.89,2.89A7,7,0,0,0,39.08,22H35v2h4.08a7,7,0,0,0,1.32,3.18l-2.89,2.89,1.42,1.42,2.89-2.89A7,7,0,0,0,45,29.92V35h2V29.92a7,7,0,0,0,3.18-1.32l2.89,2.89,1.42-1.42L51.6,27.18A7,7,0,0,0,52.92,24H57V22H52.92A7,7,0,0,0,51.6,18.82Z"/><path d="M28,46.67l-1.44-1.38A5,5,0,0,1,23,46.82a4.85,4.85,0,0,1-3.58-1.47L18,46.76a7,7,0,0,0,5,2.06H23A6.93,6.93,0,0,0,28,46.67Z"/><path d="M15.13,49.69a11,11,0,0,0,7.79,3.23H23a11,11,0,0,0,7.82-3.37L29.4,48.16A9,9,0,0,1,23,50.92h-.08a9,9,0,0,1-6.37-2.65Z"/><path d="M12.3,52.61A15,15,0,0,0,22.92,57h.13a15,15,0,0,0,10.67-4.59L32.29,51A13,13,0,0,1,23,55a12.86,12.86,0,0,1-9.32-3.83Z"/><path d="M46,7a15.9,15.9,0,0,0-7.49,1.87,21,21,0,1,0-5.82,32.76,20.56,20.56,0,0,0,5.81-4.51A15.86,15.86,0,0,0,45,39v5H43a1,1,0,0,0-1,1V58a4,4,0,0,0,8,0V45a1,1,0,0,0-1-1H47V39A16,16,0,0,0,46,7ZM19.89,11.07a5.92,5.92,0,0,0,0,6.25L22,20.63v3l-3-1.74a5.12,5.12,0,0,0-5.08,0L10,24.2l4,2.33a5.17,5.17,0,0,0,5.08,0l3-1.75v7.83l-3-1.74a5.12,5.12,0,0,0-5.08,0L10,33.2l4,2.33a5.17,5.17,0,0,0,5.08,0l3-1.75V37a16,16,0,0,0-8.3,2.52A19,19,0,1,1,36.77,10,16,16,0,0,0,30.1,21.25a5,5,0,0,0-3.14.62l-3,1.74v-3l2.11-3.31a5.92,5.92,0,0,0,0-6.25L23,6.2Zm10.66,16a16,16,0,0,0,1.56,3.83l-.07,0a5.12,5.12,0,0,0-5.08,0l-3,1.74V24.78l3,1.75A5.14,5.14,0,0,0,30.55,27.08Zm1.74,12.47A15.92,15.92,0,0,0,24,37V33.78l3,1.75a5.17,5.17,0,0,0,5.08,0l2.45-1.44A15.75,15.75,0,0,0,36.77,36,18.65,18.65,0,0,1,32.29,39.55ZM46,37A14,14,0,1,1,60,23,14,14,0,0,1,46,37Z"/><text x="0" y="79" fill="#000000" font-size="5px" font-weight="bold" font-family="'Helvetica Neue', Helvetica, Arial-Unicode, Arial, Sans-serif">Created by Studio 365</text><text x="0" y="84" fill="#000000" font-size="5px" font-weight="bold" font-family="'Helvetica Neue', Helvetica, Arial-Unicode, Arial, Sans-serif">from the Noun Project</text></svg>